<svg xmlns="http://www.w3.org/2000/svg" fill-rule="evenodd" viewBox="0 0 100 100">
    <path d="M84.5 17h-51a1.5 1.5 0 0 0-1.5 1.5v22.44l-9.12-13.35a1.5 1.5 0 0 0-2.48 1.69L31.69 45.8l-9 13.35a7.74 7.74 0 0 0-7.35 3.35 7.73 7.73 0 0 0 6.41 12.06 7.75 7.75 0 0 0 6.44-3.41 7.73 7.73 0 0 0-2.1-10.74c-.15-.1-.3-.18-.45-.27L32 50.7v30.8a1.5 1.5 0 0 0 1.5 1.5h51a1.5 1.5 0 0 0 1.5-1.5v-63a1.5 1.5 0 0 0-1.5-1.5ZM26.41 65.92a4.7 4.7 0 0 1-.72 3.55 4.75 4.75 0 0 1-6.59 1.28 4.72 4.72 0 0 1 3.66-8.54 1.47 1.47 0 0 0 .46.12 4.7 4.7 0 0 1 3.19 3.59ZM83 80H35V50.66l6.45 9.44c-.15.09-.3.17-.45.27a7.73 7.73 0 0 0-2 10.75 7.75 7.75 0 0 0 14-2.92 7.67 7.67 0 0 0-1.21-5.79 7.76 7.76 0 0 0-7.37-3.31l-9.08-13.3L46.5 29.21a1.5 1.5 0 1 0-2.5-1.68l-9 13.36V20h48ZM44.34 62.15a4.76 4.76 0 0 1 4.94 2A4.72 4.72 0 0 1 48 70.67a4.76 4.76 0 0 1-6.6-1.25 4.67 4.67 0 0 1 2.6-7.17 1.47 1.47 0 0 0 .34-.1Z"/>
</svg>
